Pearl Harbor *2001* [1080p.DTS-HD.MA 5.1.AC3.BluRay.x264-LEON 345]
 ===========================================================

Produkcja: USA
 Gatunek: Melodramat, Wojenny
 Premiera: 6 lipca 2001 (Polska), 21 maja 2001 (Świat)
 Reżyseria: Michael Bay
 Scenariusz: Randall Wallace
 Zdjęcia: John Schwartzman
 Muzyka: Hans Zimmer

 Opowieść o wojnie, miłości, męskiej przyjaźni i wielkiej pasji. Stany Zjednoczone, rok 1941. Dwaj przyjaciele i zapaleni piloci - Rafe (Ben Affleck) i Danny (Josh Hartnett) służą w lotnictwie. Rafe zakochuje się z wzajemnością w pięknej pielęgniarce Evelyn (Kate Beckinsale). Sielanka kończy się, gdy młody pilot opuszcza Amerykę, by wziąć udział w bitwie o Anglię. Wkrótce przychodzi wiadomość o jego śmierci. Kilka miesięcy później Evelyn i Danny, którzy w międzyczasie zostali przeniesieni do Pear Harbor na Hawajach, nawiązują romans. Tymczasem z wojny wraca cały i zdrowy Rafe. W tym momencie w splątane losy bohaterów ingeruje historia - japońskie bomby spadają na Pearl Harbor...

 General
 Unique ID                      : 192283632826837668526606053137365320138 (0x90A87B0A6A590B059F660B60DDA3C1CA)
 Complete name                  : F:FilmyFilmy 3DSzablonWstawkaPRL_HRBR_2001.PL(Leon 345)PRL_HRBR_2001.PL.BLUEBIRD(Leon 345).mkv
 Format                         : Matroska
 Format version                 : Version 2
 File size                      : 16.3 GiB
 Duration                       : 3h 3mn
 Encoding  type                 : 2  pass
 Overall bit rate mode          : Variable
 Overall bit rate               : 12.7 Mbps
 Encoded date                   : UTC 2013-05-29 12:24:16
 Writing application            : mkvmerge v5.7.0 ('The Whirlwind') built on Jul  8 2012 20:08:51
 Writing library                : libebml v1.2.3 + libmatroska v1.3.0

 Video
 ID                             : 1
 Format                         : AVC
 Format/Info                    : Advanced Video Codec
 Format profile                 : High@L4.1
 Format settings, CABAC         : Yes
 Format settings, ReFrames      : 2 frames
 Format settings, GOP           : M=4, N=24
 Codec ID                       : V_MPEG4/ISO/AVC
 Duration                       : 3h 3mn
 Bit rate mode                  : Variable
 Nominal bit rate               : 9 097 Kbps
 Maximum bit rate               : 35.0 Mbps
 Width                          : 1 920 pixels
 Height                         : 1 080 pixels
 Display aspect ratio           : 16:9 (2.39:1)
 Frame rate mode                : Constant
 Frame rate                     : 23.976 fps
 Color space                    : YUV
 Chroma subsampling             : 4:2:0
 Bit depth                      : 8 bits
 Scan type                      : Progressive
 Bits/(Pixel*Frame)             : 0.183
 Title                          : Rip by Leon 345  encoding  2 pass
 Writing library                : x264 core 132 r2309 3b1f1f7
 Default                        : Yes
 Forced                         : No

 Audio #1
 ID                             : 2
 Format                         : AC-3
 Format/Info                    : Audio Coding 3
 Mode extension                 : CM (complete main)
 Format settings, Endianness    : Big
 Codec ID                       : A_AC3
 Duration                       : 3h 3mn
 Bit rate mode                  : Constant
 Bit rate                       : 640 Kbps
 Channel(s)                     : 6 channels
 Channel positions              : Front: L C R, Side: L R, LFE
 Sampling rate                  : 48.0 KHz
 Bit depth                      : 16 bits
 Compression mode               : Lossy
 Stream size                    : 839 MiB (5%)
 Title                          : AC3  5.1 Lektor  PL
 Language                       : Polish
 Default                        : No
 Forced                         : No

 Audio #2
 ID                             : 3
 Format                         : AC-3
 Format/Info                    : Audio Coding 3
 Mode extension                 : CM (complete main)
 Format settings, Endianness    : Big
 Codec ID                       : A_AC3
 Duration                       : 3h 3mn
 Bit rate mode                  : Constant
 Bit rate                       : 640 Kbps
 Channel(s)                     : 6 channels
 Channel positions              : Front: L C R, Side: L R, LFE
 Sampling rate                  : 48.0 KHz
 Bit depth                      : 16 bits
 Compression mode               : Lossy
 Stream size                    : 839 MiB (5%)
 Title                          : AC3  5.1  Orginal
 Language                       : English
 Default                        : No
 Forced                         : No

 Audio #3
 ID                             : 4
 Format                         : DTS
 Format/Info                    : Digital Theater Systems
 Format profile                 : MA / Core
 Mode                           : 16
 Format settings, Endianness    : Big
 Codec ID                       : A_DTS
 Duration                       : 3h 3mn
 Bit rate mode                  : Variable
 Bit rate                       : 2357 / 1 509 Kbps
 Channel(s)                     : 6 channels
 Channel positions              : Front: L C R, Side: L R, LFE
 Sampling rate                  : 48.0 KHz
 Bit depth                      : 16 bits
 Compression mode               : Lossless / Lossy
 Title                          : DTS-HD MA  5.1
 Language                       : English
 Default                        : No
 Forced                         : No

 Text #1
 ID                             : 5
 Format                         : PGS
 Muxing mode                    : zlib
 Codec ID                       : S_HDMV/PGS
 Codec ID/Info                  : The same subtitle format used on BDs/HD-DVDs
 Language                       : Polish
 Default                        : No
 Forced                         : No

 Text #2
 ID                             : 6
 Format                         : PGS
 Muxing mode                    : zlib
 Codec ID                       : S_HDMV/PGS
 Codec ID/Info                  : The same subtitle format used on BDs/HD-DVDs
 Language                       : English
 Default                        : No
 Forced                         : No

 Text #3
 ID                             : 7
 Format                         : UTF-8
 Codec ID                       : S_TEXT/UTF8
 Codec ID/Info                  : UTF-8 Plain Text
 Default                        : Yes
 Forced                         : Yes

 Source [thx]:
 A/V-Pearl Harbor 2001 Bluray 1080p AVC DTS 5.1(Custom)
 Polski Lektor -Pearl Harbor (2001) Blu-ray CEE 1080p MPEG-2 DD5.1-DVDSEED